PathFileType	4	(X/Y/Z)	C:/Users/beibeiliu/ov580/test_trc/User3\sequence.34_training_dense_left.trc
DataRate	CameraRate	NumFrames	NumMarkers	Units	OrigDataRate	OrigDataStartFrame	OrigNumFrames
120	120	9	19	mm	120	51	126
Frame#	Time	ThumbCMC			ThumbMCP			ThumbIP			ThumbTip			IndexMCP			IndexPIP			IndexTip			MiddleMCP			MiddlePIP			MiddleTip			RingMCP			RingPIP			RingTip			PinkyMCP			PinkyPIP			PinkyTip			BackHand1			BackHand2			BackHand3	
		X0	Y0	Z0	X1	Y1	Z1	X2	Y2	Z2	X3	Y3	Z3	X4	Y4	Z4	X5	Y5	Z5	X6	Y6	Z6	X7	Y7	Z7	X8	Y8	Z8	X9	Y9	Z9	X10	Y10	Z10	X11	Y11	Z11	X12	Y12	Z12	X13	Y13	Z13	X14	Y14	Z14	X15	Y15	Z15	X16	Y16	Z16	X17	Y17	Z17	X18	Y18	Z18	
50	0.416667	-164.104	-7.80647	18.1418	-170.436	-4.5762	-11.419	-175.389	-0.326179	-38.5182	-180.692	4.75038	-61.0865	-128.622	-17.8133	-53.6885	-112.89	-0.295168	-74.8777	-105.627	20.4853	-86.5568	-103.032	-24.8321	-50.9866	-90.3028	-4.72776	-70.3824	-76.685	22.0764	-81.132	-87.7453	-34.2924	-37.0135	-69.3786	-21.2681	-58.076	-56.3555	0.0464912	-74.4219	-71.1537	-37.0582	-16.8492	-54.5618	-32.9832	-29.6929	-41.4976	-23.6009	-47.2282	-112.219	-49.9324	12.4753	-119.524	-49.0684	38.5577	-144.193	-40.1768	13.6591	
51	0.425	-164.126	-1.62315	19.9758	-173.41	3.85995	-8.25451	-174.125	7.09069	-36.6698	-178.3	11.5273	-62.2651	-126.208	-13.0717	-53.4788	-115.349	5.28305	-72.7551	-101.983	27.4057	-85.1213	-104.416	-19.9442	-49.3097	-94.919	-1.52102	-68.4787	-75.0805	30.8513	-80.8103	-89.625	-28.4354	-37.5502	-73.6101	-15.8326	-58.1863	-57.187	2.98407	-69.4508	-71.1481	-32.8038	-11.8736	-54.7247	-26.2913	-32.1322	-43.3751	-14.6454	-47.7798	-113.133	-43.9956	11.7791	-118.103	-42.9328	41.686	-146.606	-34.7382	14.1045	
52	0.433333	-160.427	0.137902	18.9435	-170.175	7.34197	-5.19962	-176.85	10.6537	-41.0914	-176.823	17.2057	-60.6389	-124.934	-10.1153	-51.1586	-114.485	8.0915	-70.8838	-101.224	31.2324	-82.7367	-101.325	-15.5011	-51.5131	-94.2163	2.6659	-68.8282	-81.1186	34.914	-80.2862	-86.2633	-25.1296	-33.0552	-74.1819	-12.4497	-56.545	-57.5087	8.21086	-70.5442	-71.1685	-28.0922	-12.7392	-55.0772	-21.8578	-32.1127	-37.8263	-11.3232	-48.3305	-112.521	-38.7226	11.2683	-118.821	-40.2938	44.6248	-145.978	-30.4936	13.0573	
53	0.441667	-162.174	3.9398	23.0693	-170.425	8.05706	-8.07539	-176.018	13.2573	-37.759	-174.485	19.1631	-56.3053	-124.925	-7.92475	-48.5198	-114.346	11.7797	-69.3632	-104.663	31.8809	-80.3952	-104.568	-11.7938	-49.9636	-91.0387	7.75506	-68.0448	-77.7627	36.7754	-77.1754	-89.057	-21.1079	-35.1417	-72.8318	-10.3076	-52.2377	-60.5863	8.0341	-68.473	-73.6448	-26.2343	-11.7602	-57.1039	-20.7738	-30.2994	-40.9252	-11.7453	-45.3257	-110.605	-39.1783	18.6879	-118.918	-37.4062	44.491	-145.936	-27.8162	15.1177	
54	0.45	-160.406	0.89105	22.015	-167.789	6.46677	-2.07423	-174.024	10.7914	-33.0823	-172.943	16.457	-52.8283	-122.93	-9.20995	-46.0273	-111.348	11.3479	-68.3651	-101.947	30.2815	-77.4376	-99.5845	-15.9987	-43.4969	-89.6333	6.91089	-64.0489	-76.812	35.8625	-75.0747	-84.0883	-23.7039	-28.1377	-67.966	-11.4797	-49.5566	-58.4207	7.0064	-65.111	-70.3013	-28.1697	-9.93564	-55.2156	-23.196	-25.9792	-41.0756	-11.4382	-42.2793	-109.306	-40.7769	19.6821	-116.152	-37.0072	49.6676	-144.064	-27.2572	20.0926	
55	0.458333	-158.107	2.48026	26.3834	-168.425	7.38123	-2.42241	-170.38	11.2602	-29.4628	-176.673	17.4346	-52.5765	-122.612	-9.39797	-41.6115	-110.931	10.7404	-62.8345	-99.6158	31.9431	-74.6751	-102.224	-14.6481	-41.6197	-90.6529	6.42076	-62.4778	-75.6017	31.8961	-70.8492	-88.5306	-23.5713	-25.8347	-68.6279	-10.281	-49.3242	-57.756	8.02808	-62.6235	-70.5607	-28.4013	-5.22273	-57.975	-23.7802	-22.4332	-37.7223	-9.53172	-40.1744	-112.231	-37.3349	21.7525	-119.875	-36.3534	48.447	-144.846	-28.4937	25.5001	
56	0.466667	-160.78	2.4673	26.2056	-170.853	8.06772	-0.0410146	-175.633	12.2037	-28.8465	-178.386	18.7754	-48.011	-124.462	-6.70271	-42.8592	-114.543	12.2135	-61.5991	-103.762	32.2743	-73.0889	-102.241	-13.1399	-41.647	-88.8261	7.90404	-59.7578	-73.8194	36.1251	-69.274	-88.5668	-22.9039	-23.6496	-69.5985	-9.67965	-47.0252	-59.1653	11.4798	-62.6768	-75.4307	-26.3135	-2.15485	-59.583	-23.0822	-19.8685	-40.0146	-10.2181	-37.3738	-108.679	-39.3767	20.8913	-119.166	-37.9179	53.6635	-145.255	-25.5874	22.7432	
57	0.475	-161.172	3.29728	32.0548	-169.371	7.53715	4.81271	-171.792	10.9609	-26.9484	-175.133	16.6576	-46.8116	-124.588	-4.65244	-42.2485	-112.294	11.7771	-59.6625	-102.259	33.9093	-71.7685	-102.368	-13.6005	-38.9882	-91.8044	4.63772	-55.585	-76.1031	38.0954	-67.5173	-88.0762	-21.7429	-26.3813	-74.0379	-10.6505	-46.1744	-61.7158	8.50076	-58.7692	-74.185	-25.917	-0.73176	-55.718	-21.6835	-19.2615	-40.8485	-12.9452	-34.5914	-110.315	-36.5219	25.612	-123.665	-36.2068	52.1361	-145.801	-27.0602	27.4604	
58	0.483333	-166.7	2.7879	32.8116	-171.169	6.46424	5.30012	-176.979	10.08	-22.163	-178.167	14.4914	-46.9227	-127.086	-8.11145	-38.5169	-115.505	8.93065	-57.7136	-101.76	33.3533	-72.1072	-104.717	-15.4201	-35.0782	-91.7955	8.09158	-56.6332	-79.1376	37.3165	-67.5877	-90.1328	-24.0434	-21.3577	-74.1972	-11.4038	-43.6101	-63.2686	6.58137	-57.6434	-74.6503	-27.3162	0.398176	-60.7241	-23.1615	-17.3483	-42.7658	-12.5076	-35.3286	-115.226	-37.2734	22.9247	-122.884	-36.5674	55.4969	-146.204	-28.7294	27.5265	
